HIERARCHY
ROOT Hips
{
  OFFSET 55.0133 96.1855 7.58567
  CHANNELS 6 Xposition Yposition Zposition Zrotation Xrotation Yrotation
  JOINT spine
  {
    OFFSET 0 8.13249 0.467659
    CHANNELS 3 Zrotation Xrotation Yrotation
    JOINT spine1
    {
      OFFSET 0 10.3498 0
      CHANNELS 3 Zrotation Xrotation Yrotation
      JOINT spine2
      {
        OFFSET 0 9.91699 0
        CHANNELS 3 Zrotation Xrotation Yrotation
        JOINT Neck
        {
          OFFSET 0 25.461 1.2139
          CHANNELS 3 Zrotation Xrotation Yrotation
          JOINT Head
          {
            OFFSET 0 7.69245 0
            CHANNELS 3 Zrotation Xrotation Yrotation
            End Site
            {
              OFFSET 0 18.62 -6.14063
            }
          }
        }
        JOINT RightShoulder
        {
          OFFSET -4.17575 10.7096 -0.581445
          CHANNELS 3 Zrotation Xrotation Yrotation
          JOINT RightArm
          {
            OFFSET 0 14.0466 0
            CHANNELS 3 Zrotation Xrotation Yrotation
            JOINT RightArmRoll
            {
              OFFSET 0 7.09098 0
              CHANNELS 3 Zrotation Xrotation Yrotation
              JOINT RightForeArm
              {
                OFFSET 0 20.6535 0
                CHANNELS 3 Zrotation Xrotation Yrotation
                JOINT RightForeArmRoll
                {
                  OFFSET 0 7.95718 0
                  CHANNELS 3 Zrotation Xrotation Yrotation
                  JOINT RightHand
                  {
                    OFFSET 0 15.9683 0
                    CHANNELS 3 Zrotation Xrotation Yrotation
                    End Site
                    {
                      OFFSET 0 0 0
                    }
                  }
                }
              }
            }
          }
        }
        JOINT LeftShoulder
        {
          OFFSET 4.17575 10.7096 -0.581445
          CHANNELS 3 Zrotation Xrotation Yrotation
          JOINT LeftArm
          {
            OFFSET 0 14.0466 0
            CHANNELS 3 Zrotation Xrotation Yrotation
            JOINT LeftArmRoll
            {
              OFFSET 0 7.09098 0
              CHANNELS 3 Zrotation Xrotation Yrotation
              JOINT LeftForeArm
              {
                OFFSET 0 20.6535 0
                CHANNELS 3 Zrotation Xrotation Yrotation
                JOINT LeftForeArmRoll
                {
                  OFFSET 0 7.95718 0
                  CHANNELS 3 Zrotation Xrotation Yrotation
                  JOINT LeftHand
                  {
                    OFFSET 0 15.9683 0
                    CHANNELS 3 Zrotation Xrotation Yrotation
                    End Site
                    {
                      OFFSET 0 0 0
                    }
                  }
                }
              }
            }
          }
        }
      }
    }
  }
  JOINT RightUpLeg
  {
    OFFSET -7.20834 -1.32182 -1.10884
    CHANNELS 3 Zrotation Xrotation Yrotation
    JOINT RightUpLegRoll
    {
      OFFSET 0 18.7238 0
      CHANNELS 3 Zrotation Xrotation Yrotation
      JOINT RightLeg
      {
        OFFSET 0 -23.1866 0
        CHANNELS 3 Zrotation Xrotation Yrotation
        JOINT RightLegRoll
        {
          OFFSET 0 23.2624 0
          CHANNELS 3 Zrotation Xrotation Yrotation
          JOINT RightFoot
          {
            OFFSET 0 19.3621 0
            CHANNELS 3 Zrotation Xrotation Yrotation
            JOINT RightToeBase
            {
              OFFSET 0 16.1857 0
              CHANNELS 3 Zrotation Xrotation Yrotation
              End Site
              {
                OFFSET 0.00686052 7.83862 -0.903522
              }
            }
          }
        }
      }
    }
  }
  JOINT LeftUpLeg
  {
    OFFSET 7.20834 -1.32182 -1.10884
    CHANNELS 3 Zrotation Xrotation Yrotation
    JOINT LeftUpLegRoll
    {
      OFFSET 0 18.7239 0
      CHANNELS 3 Zrotation Xrotation Yrotation
      JOINT LeftLeg
      {
        OFFSET 0 23.1865 0
        CHANNELS 3 Zrotation Xrotation Yrotation
        JOINT LeftLegRoll
        {
          OFFSET 0 23.4775 0
          CHANNELS 3 Zrotation Xrotation Yrotation
          JOINT LeftFoot
          {
            OFFSET 0 19.147 0
            CHANNELS 3 Zrotation Xrotation Yrotation
            JOINT LeftToeBase
            {
              OFFSET 0 16.1857 0
              CHANNELS 3 Zrotation Xrotation Yrotation
              End Site
              {
                OFFSET -0.0307459 7.83863 -0.903522
              }
            }
          }
        }
      }
    }
  }
}
MOTION
Frames: 8
Frame Time: 0.00208333
54.2628 96.2439 5.18684 0.334389 -0.849057 0.669781 0.139664 -2.33638 0.0484995 0.280077 -0.669842 0.0845633 0.279104 0.975222 0.0798873 -0.883326 17.7564 -3.0937 -1.21468 -2.24719 -3.52225 35.4861 -16.7685 -12.6945 54.686 40.5292 56.4367 -1.0354e-05 2.78558e-06 -2.95875e-05 -8.32081 0.137592 1.1882 8.03934e-07 -1.46811e-05 -3.00856 8.03064 -4.95138 0.697611 -44.1764 -14.5818 9.96568 -41.8852 30.8897 -49.9811 9.52618e-06 6.98277e-06 7.21664e-06 5.37795 -0.0396668 0.886764 -3.95586e-06 -5.43504e-07 3.04194 -8.03018 -4.95138 -0.697624 171.646 4.72017 4.24042 -180 7.01577e-15 179.061 178.352 9.43725 179.669 -2.99257e-07 -3.05125e-06 -0.0455203 -15.9952 67.2851 18.9785 8.13655 25.2335 -3.48658 -174.858 2.84188 -0.338692 4.54188e-06 -4.6773e-06 -1.02098 -1.04502 -10.5523 0.368542 2.68875e-06 -1.15184e-06 -0.163677 19.3757 70.0791 -21.3743 -8.12803 25.2353 3.48393 
54.2649 96.2434 5.17647 0.334503 -0.839522 0.670024 0.138679 -2.33938 0.046636 0.277956 -0.675858 0.0809308 0.277026 0.969206 0.0762897 -0.862499 17.7967 -3.09604 -1.23458 -2.28571 -3.52111 35.5008 -16.7484 -12.673 54.6761 40.5143 56.4413 -1.0354e-05 2.78558e-06 -2.95875e-05 -8.32245 0.130256 1.18769 8.03934e-07 -1.46811e-05 -3.00856 8.03064 -4.95138 0.697611 -44.1783 -14.595 9.97647 -41.8893 30.8807 -49.9599 9.52618e-06 6.98277e-06 7.21664e-06 5.36335 -0.0396678 0.889295 -3.95586e-06 -5.43504e-07 3.04199 -8.03018 -4.95138 -0.697624 171.645 4.7348 4.24087 -180 7.01577e-15 179.061 178.351 9.44484 179.669 -2.99257e-07 -3.05125e-06 -0.0455288 -15.9982 67.2869 18.9817 8.13655 25.2335 -3.48658 -174.857 2.85374 -0.338887 4.54188e-06 -4.6773e-06 -1.02093 -1.04609 -10.556 0.368399 2.68875e-06 -1.15184e-06 -0.163642 19.3756 70.0803 -21.377 -8.12803 25.2353 3.48393 
54.2594 96.242 5.17369 0.334781 -0.828169 0.670186 0.1376 -2.343 0.0443699 0.275673 -0.683105 0.0765025 0.274796 0.96196 0.071899 -0.842001 17.8441 -3.09765 -1.25467 -2.33137 -3.51944 35.515 -16.7247 -12.648 54.6674 40.4976 56.4463 -1.0354e-05 2.78558e-06 -2.95875e-05 -8.32501 0.121606 1.18723 8.03934e-07 -1.46811e-05 -3.00856 8.03064 -4.95138 0.697611 -44.1825 -14.61 9.98866 -41.8928 30.8687 -49.9349 9.52618e-06 6.98277e-06 7.21664e-06 5.34604 -0.0396689 0.892288 -3.95586e-06 -5.43504e-07 3.04206 -8.03018 -4.95138 -0.697624 171.643 4.7522 4.24142 -180 7.01577e-15 179.061 178.35 9.45376 179.67 -2.99257e-07 -3.05125e-06 -0.0455373 -16.0015 67.2891 18.9853 8.13655 25.2335 -3.48658 -174.857 2.86715 -0.339279 4.54188e-06 -4.6773e-06 -1.02088 -1.04768 -10.5592 0.368128 2.68875e-06 -1.15184e-06 -0.163608 19.375 70.0812 -21.3797 -8.12803 25.2353 3.48393 
54.2806 96.2534 5.25131 0.335233 -0.815404 0.670248 0.13645 -2.3471 0.0417895 0.273275 -0.691312 0.0714531 0.272456 0.953754 0.066889 -0.82214 17.8972 -3.09857 -1.27457 -2.38266 -3.51732 35.5285 -16.6982 -12.6203 54.6602 40.4795 56.4515 -1.0354e-05 2.78558e-06 -2.95875e-05 -8.32833 0.111941 1.18683 8.03934e-07 -1.46811e-05 -3.00856 8.03064 -4.95138 0.697611 -44.1887 -14.6264 10.0019 -41.8957 30.8543 -49.907 9.52618e-06 6.98277e-06 7.21664e-06 5.32657 -0.0396701 0.895648 -3.95586e-06 -5.43504e-07 3.04215 -8.03018 -4.95138 -0.697624 171.642 4.77177 4.24207 -180 7.01577e-15 179.061 178.35 9.46377 179.67 -2.99257e-07 -3.05125e-06 -0.0455457 -16.005 67.2915 18.9891 8.13655 25.2335 -3.48658 -174.857 2.88165 -0.339817 4.54188e-06 -4.6773e-06 -1.02083 -1.0497 -10.5619 0.367745 2.68875e-06 -1.15184e-06 -0.163575 19.3739 70.082 -21.3824 -8.12803 25.2353 3.48393 
54.2767 96.2502 5.2329 0.335871 -0.801636 0.670192 0.135252 -2.35155 0.0389834 0.270803 -0.700208 0.0659571 0.27005 0.944857 0.0614335 -0.803223 17.9545 -3.09888 -1.29393 -2.43806 -3.51487 35.5412 -16.6696 -12.5907 54.6543 40.4606 56.4569 -1.0354e-05 2.78558e-06 -2.95875e-05 -8.33227 0.101557 1.18649 8.03934e-07 -1.46811e-05 -3.00856 8.03064 -4.95138 0.697611 -44.1965 -14.6438 10.0158 -41.898 30.838 -49.877 9.52618e-06 6.98277e-06 7.21664e-06 5.30553 -0.0396714 0.899275 -3.95586e-06 -5.43504e-07 3.04226 -8.03018 -4.95138 -0.697624 171.64 4.7929 4.24285 -180 7.01577e-15 179.061 178.349 9.47455 179.671 -2.99257e-07 -3.05125e-06 -0.0455541 -16.0087 67.2941 18.9931 8.13655 25.2335 -3.48658 -174.857 2.89678 -0.340449 4.54188e-06 -4.6773e-06 -1.02078 -1.05207 -10.5641 0.367265 2.68875e-06 -1.15184e-06 -0.163541 19.3726 70.0826 -21.385 -8.12803 25.2353 3.48393 
54.2617 96.2421 5.18083 0.336705 -0.787272 0.669997 0.134031 -2.3562 0.0360401 0.268304 -0.709524 0.0601889 0.267619 0.935542 0.0557063 -0.785558 18.0144 -3.09864 -1.31236 -2.49604 -3.51217 35.5528 -16.6398 -12.5599 54.6498 40.4413 56.4623 -1.0354e-05 2.78558e-06 -2.95875e-05 -8.33667 0.0907514 1.1862 8.03934e-07 -1.46811e-05 -3.00856 8.03064 -4.95138 0.697611 -44.2057 -14.6616 10.03 -41.8998 30.8204 -49.8455 9.52618e-06 6.98277e-06 7.21664e-06 5.28347 -0.0396728 0.903071 -3.95586e-06 -5.43504e-07 3.04238 -8.03018 -4.95138 -0.697624 171.637 4.81498 4.24377 -180 7.01577e-15 179.061 178.348 9.48584 179.671 -2.99257e-07 -3.05125e-06 -0.0455625 -16.0125 67.2967 18.9971 8.13655 25.2335 -3.48658 -174.857 2.91207 -0.341125 4.54188e-06 -4.6773e-06 -1.02074 -1.05472 -10.5656 0.366704 2.68875e-06 -1.15184e-06 -0.163509 19.371 70.083 -21.3875 -8.12803 25.2353 3.48393 
54.2651 96.245 5.20021 0.337745 -0.772721 0.669646 0.132811 -2.36093 0.0330478 0.265822 -0.718989 0.0543232 0.265205 0.926077 0.0498813 -0.769453 18.0755 -3.09791 -1.32951 -2.55508 -3.50931 35.5632 -16.6095 -12.5289 54.6468 40.4221 56.4675 -1.0354e-05 2.78558e-06 -2.95875e-05 -8.34139 0.0798205 1.18597 8.03934e-07 -1.46811e-05 -3.00856 8.03064 -4.95138 0.697611 -44.2159 -14.6794 10.0441 -41.9011 30.8018 -49.8135 9.52618e-06 6.98277e-06 7.21664e-06 5.26098 -0.0396743 0.906938 -3.95586e-06 -5.43504e-07 3.04252 -8.03018 -4.95138 -0.697624 171.635 4.8374 4.24484 -180 7.01577e-15 179.061 178.347 9.49736 179.671 -2.99257e-07 -3.05125e-06 -0.0455708 -16.0161 67.2994 19.0012 8.13655 25.2335 -3.48658 -174.858 2.92706 -0.341793 4.54188e-06 -4.6773e-06 -1.0207 -1.05757 -10.5665 0.366077 2.68875e-06 -1.15184e-06 -0.163476 19.3692 70.0832 -21.3898 -8.12803 25.2353 3.48393 
54.2594 96.2427 5.16962 0.339002 -0.758389 0.66912 0.131614 -2.3656 0.0300952 0.263401 -0.728334 0.0485344 0.262853 0.916733 0.0441322 -0.755214 18.1362 -3.09676 -1.345 -2.61366 -3.5064 35.572 -16.5796 -12.4983 54.6452 40.4034 56.4723 -1.0354e-05 2.78558e-06 -2.95875e-05 -8.34627 0.0690615 1.1858 8.03934e-07 -1.46811e-05 -3.00856 8.03064 -4.95138 0.697611 -44.2269 -14.6968 10.0578 -41.9019 30.7828 -49.7816 9.52618e-06 6.98277e-06 7.21664e-06 5.23861 -0.0396757 0.910778 -3.95586e-06 -5.43504e-07 3.04266 -8.03018 -4.95138 -0.697624 171.632 4.85955 4.24608 -180 7.01577e-15 179.061 178.346 9.50883 179.672 -2.99257e-07 -3.05125e-06 -0.0455791 -16.0196 67.302 19.0051 8.13655 25.2335 -3.48658 -174.859 2.94129 -0.342403 4.54188e-06 -4.6773e-06 -1.02065 -1.06054 -10.5667 0.365399 2.68875e-06 -1.15184e-06 -0.163445 19.3674 70.0833 -21.3919 -8.12803 25.2353 3.48393 
